<svg xmlns="http://www.w3.org/2000/svg" width="36" height="35.1" viewBox="0 0 36 35.1"><path d="M0,.45v35.1H36V.45Zm1.5,1.5h33v32.1H1.5ZM9.446,8.667c0-.1.026-.174.15-.174.965-.05,2.375-.075,3.859-.075,4.158,0,5.965,2.279,5.965,5.2,0,3.81-2.759,5.445-6.149,5.445-.57,0-.768-.025-1.164-.025V24.8c0,.125-.05.174-.172.174H9.62c-.125,0-.174-.049-.174-.174Zm2.662,7.969c.347.024.62.024,1.214.024,1.757,0,3.4-.618,3.4-2.994,0-1.9-1.173-2.871-3.179-2.871-.594,0-1.163.024-1.436.05Zm9.6-1.362c0-.172,0-.618-.073-1.46,0-.125.017-.15.115-.2a15.63,15.63,0,0,1,5.486-1.04c.123,0,.172.024.172.149V14.9c0,.123-.039.149-.163.149a8.587,8.587,0,0,0-2.835.3V24.8c0,.125-.051.174-.174.174H21.881c-.123,0-.173-.049-.173-.174Z" transform="translate(0 -0.45)" fill="#fff"/></svg>