<svg xmlns="http://www.w3.org/2000/svg" width="36" height="35.1" viewBox="0 0 36 35.1"><path d="M29.625.45H6.375A6.37,6.37,0,0,0,0,6.825v22.35A6.37,6.37,0,0,0,6.375,35.55h23.25A6.37,6.37,0,0,0,36,29.175V6.825A6.37,6.37,0,0,0,29.625.45Zm4.86,28.14a5.435,5.435,0,0,1-5.43,5.46H6.945A5.457,5.457,0,0,1,1.5,28.59V7.41A5.457,5.457,0,0,1,6.945,1.95H29.04A5.445,5.445,0,0,1,34.485,7.4ZM9.975,24.945c-.18,0-.225-.075-.225-.225V8.6c0-.12.045-.195.18-.195H12.3c.12,0,.15.045.15.18V22.47h6.18c.12,0,.165.045.135.18l-.375,2.13a.213.213,0,0,1-.225.18H9.975v-.015Zm11.25-9.72c0-.18,0-.615-.075-1.455a.172.172,0,0,1,.12-.195,15.778,15.778,0,0,1,5.52-1.035c.12,0,.18.03.18.15v2.16c0,.12-.045.15-.18.15a8.827,8.827,0,0,0-2.865.3v9.465c0,.12-.045.18-.18.18H21.39c-.12,0-.18-.045-.18-.18v-9.54Z" transform="translate(0 -0.45)" fill="#fff"/></svg>